HIERARCHY
ROOT reference
{
  OFFSET 0 0 0
  CHANNELS 6 Xposition Yposition Zposition Zrotation Xrotation Yrotation
  JOINT Hips
  {
    OFFSET 370.543 87.5 183.721
    CHANNELS 3 Zrotation Xrotation Yrotation
    JOINT RightUpLeg
    {
      OFFSET -9.29072 -1.53718 -0.00769521
      CHANNELS 3 Zrotation Xrotation Yrotation
      JOINT RightLeg
      {
        OFFSET 0.000649198 -41.8926 0.0287464
        CHANNELS 3 Zrotation Xrotation Yrotation
        JOINT RightFoot
        {
          OFFSET -0.131981 -42.8927 0.241786
          CHANNELS 3 Zrotation Xrotation Yrotation
          End Site
          {
            OFFSET 0 -7.69 17.5
          }
        }
      }
    }
    JOINT LeftUpLeg
    {
      OFFSET 9.29816 -1.6623 -0.0330144
      CHANNELS 3 Zrotation Xrotation Yrotation
      JOINT LeftLeg
      {
        OFFSET 0.0555409 -41.8801 -0.0492089
        CHANNELS 3 Zrotation Xrotation Yrotation
        JOINT LeftFoot
        {
          OFFSET 0.737583 -41.1094 -0.206555
          CHANNELS 3 Zrotation Xrotation Yrotation
          End Site
          {
            OFFSET 0 -7.69 17.5
          }
        }
      }
    }
    JOINT Spine
    {
      OFFSET 0.0742767 14.2946 0.0485675
      CHANNELS 3 Zrotation Xrotation Yrotation
      JOINT Spine1
      {
        OFFSET 0.0332084 9.70841 0.0159593
        CHANNELS 3 Zrotation Xrotation Yrotation
        JOINT Spine2
        {
          OFFSET 0.0388468 10.1231 0.00288192
          CHANNELS 3 Zrotation Xrotation Yrotation
          JOINT Spine3
          {
            OFFSET 0.0300771 9.71993 0.00776905
            CHANNELS 3 Zrotation Xrotation Yrotation
            JOINT Neck
            {
              OFFSET 0.058413 10.382 0.0516165
              CHANNELS 3 Zrotation Xrotation Yrotation
              JOINT Head
              {
                OFFSET 0.0298281 9.47849 0.0268718
                CHANNELS 3 Zrotation Xrotation Yrotation
                End Site
                {
                  OFFSET 0 15.95 0
                }
              }
            }
            JOINT RightShoulder
            {
              OFFSET -3.15612 6.91385 0.0353801
              CHANNELS 3 Zrotation Xrotation Yrotation
              JOINT RightArm
              {
                OFFSET -12.7781 -0.0057607 0.0332486
                CHANNELS 3 Zrotation Xrotation Yrotation
                JOINT RightForeArm
                {
                  OFFSET -26.4999 -0.0425897 0.0409183
                  CHANNELS 3 Zrotation Xrotation Yrotation
                  JOINT RightHand
                  {
                    OFFSET -25.993 -0.0294641 0.00108206
                    CHANNELS 3 Zrotation Xrotation Yrotation
                    JOINT RightHandThumb1
                    {
                      OFFSET -2.48905 0.190105 3.12053
                      CHANNELS 3 Zrotation Xrotation Yrotation
                      JOINT RightHandThumb2
                      {
                        OFFSET -3.68274 0 0
                        CHANNELS 3 Zrotation Xrotation Yrotation
                        JOINT RightHandThumb3
                        {
                          OFFSET -2.55832 0 0
                          CHANNELS 3 Zrotation Xrotation Yrotation
                          End Site
                          {
                            OFFSET -2.194 0 0
                          }
                        }
                      }
                    }
                    JOINT RightInHandIndex
                    {
                      OFFSET -3.22368 0.508421 1.97842
                      CHANNELS 3 Zrotation Xrotation Yrotation
                      JOINT RightHandIndex1
                      {
                        OFFSET -5.21684 -0.091368 0.999158
                        CHANNELS 3 Zrotation Xrotation Yrotation
                        JOINT RightHandIndex2
                        {
                          OFFSET -3.61937 0 0
                          CHANNELS 3 Zrotation Xrotation Yrotation
                          JOINT RightHandIndex3
                          {
                            OFFSET -2.0521 0 0
                            CHANNELS 3 Zrotation Xrotation Yrotation
                            End Site
                            {
                              OFFSET -1.805 0 0
                            }
                          }
                        }
                      }
                    }
                    JOINT RightInHandMiddle
                    {
                      OFFSET -3.38211 0.517263 0.756737
                      CHANNELS 3 Zrotation Xrotation Yrotation
                      JOINT RightHandMiddle1
                      {
                        OFFSET -5.17411 -0.084 0.313895
                        CHANNELS 3 Zrotation Xrotation Yrotation
                        JOINT RightHandMiddle2
                        {
                          OFFSET -3.94947 0 0
                          CHANNELS 3 Zrotation Xrotation Yrotation
                          JOINT RightHandMiddle3
                          {
                            OFFSET -2.47579 0 0
                            CHANNELS 3 Zrotation Xrotation Yrotation
                            End Site
                            {
                              OFFSET -1.975 0 0
                            }
                          }
                        }
                      }
                    }
                    JOINT RightInHandRing
                    {
                      OFFSET -3.36516 0.537895 -0.128947
                      CHANNELS 3 Zrotation Xrotation Yrotation
                      JOINT RightHandRing1
                      {
                        OFFSET -4.63474 -0.022105 -0.478947
                        CHANNELS 3 Zrotation Xrotation Yrotation
                        JOINT RightHandRing2
                        {
                          OFFSET -3.44238 0 0
                          CHANNELS 3 Zrotation Xrotation Yrotation
                          JOINT RightHandRing3
                          {
                            OFFSET -2.3881 0 0
                            CHANNELS 3 Zrotation Xrotation Yrotation
                            End Site
                            {
                              OFFSET -1.857 0 0
                            }
                          }
                        }
                      }
                    }
                    JOINT RightInHandPinky
                    {
                      OFFSET -3.16105 0.469368 -1.20179
                      CHANNELS 3 Zrotation Xrotation Yrotation
                      JOINT RightHandPinky1
                      {
                        OFFSET -4.14105 -0.022105 -1.09053
                        CHANNELS 3 Zrotation Xrotation Yrotation
                        JOINT RightHandPinky2
                        {
                          OFFSET -2.75653 0 0
                          CHANNELS 3 Zrotation Xrotation Yrotation
                          JOINT RightHandPinky3
                          {
                            OFFSET -1.74189 0 0
                            CHANNELS 3 Zrotation Xrotation Yrotation
                            End Site
                            {
                              OFFSET -1.645 0 0
                            }
                          }
                        }
                      }
                    }
                  }
                }
              }
            }
            JOINT LeftShoulder
            {
              OFFSET 3.24463 6.9123 -0.0189685
              CHANNELS 3 Zrotation Xrotation Yrotation
              JOINT LeftArm
              {
                OFFSET 12.8793 -0.0485389 -0.0634723
                CHANNELS 3 Zrotation Xrotation Yrotation
                JOINT LeftForeArm
                {
                  OFFSET 26.4894 0.00252616 -0.136149
                  CHANNELS 3 Zrotation Xrotation Yrotation
                  JOINT LeftHand
                  {
                    OFFSET 26.005 0.0292639 -0.0166184
                    CHANNELS 3 Zrotation Xrotation Yrotation
                    JOINT LeftHandThumb1
                    {
                      OFFSET 2.48905 0.190105 3.12053
                      CHANNELS 3 Zrotation Xrotation Yrotation
                      JOINT LeftHandThumb2
                      {
                        OFFSET 3.68274 0 0
                        CHANNELS 3 Zrotation Xrotation Yrotation
                        JOINT LeftHandThumb3
                        {
                          OFFSET 2.55832 0 0
                          CHANNELS 3 Zrotation Xrotation Yrotation
                          End Site
                          {
                            OFFSET 2.194 0 0
                          }
                        }
                      }
                    }
                    JOINT LeftInHandIndex
                    {
                      OFFSET 3.22368 0.508421 1.97842
                      CHANNELS 3 Zrotation Xrotation Yrotation
                      JOINT LeftHandIndex1
                      {
                        OFFSET 5.21684 -0.091368 0.999158
                        CHANNELS 3 Zrotation Xrotation Yrotation
                        JOINT LeftHandIndex2
                        {
                          OFFSET 3.61937 0 0
                          CHANNELS 3 Zrotation Xrotation Yrotation
                          JOINT LeftHandIndex3
                          {
                            OFFSET 2.0521 0 0
                            CHANNELS 3 Zrotation Xrotation Yrotation
                            End Site
                            {
                              OFFSET 1.805 0 0
                            }
                          }
                        }
                      }
                    }
                    JOINT LeftInHandMiddle
                    {
                      OFFSET 3.38211 0.517263 0.756737
                      CHANNELS 3 Zrotation Xrotation Yrotation
                      JOINT LeftHandMiddle1
                      {
                        OFFSET 5.17411 -0.084 0.313895
                        CHANNELS 3 Zrotation Xrotation Yrotation
                        JOINT LeftHandMiddle2
                        {
                          OFFSET 3.94947 0 0
                          CHANNELS 3 Zrotation Xrotation Yrotation
                          JOINT LeftHandMiddle3
                          {
                            OFFSET 2.47579 0 0
                            CHANNELS 3 Zrotation Xrotation Yrotation
                            End Site
                            {
                              OFFSET 1.975 0 0
                            }
                          }
                        }
                      }
                    }
                    JOINT LeftInHandRing
                    {
                      OFFSET 3.36516 0.537895 -0.128947
                      CHANNELS 3 Zrotation Xrotation Yrotation
                      JOINT LeftHandRing1
                      {
                        OFFSET 4.63474 -0.022105 -0.478947
                        CHANNELS 3 Zrotation Xrotation Yrotation
                        JOINT LeftHandRing2
                        {
                          OFFSET 3.44238 0 0
                          CHANNELS 3 Zrotation Xrotation Yrotation
                          JOINT LeftHandRing3
                          {
                            OFFSET 2.3881 0 0
                            CHANNELS 3 Zrotation Xrotation Yrotation
                            End Site
                            {
                              OFFSET 1.857 0 0
                            }
                          }
                        }
                      }
                    }
                    JOINT LeftInHandPinky
                    {
                      OFFSET 3.16105 0.469368 -1.20179
                      CHANNELS 3 Zrotation Xrotation Yrotation
                      JOINT LeftHandPinky1
                      {
                        OFFSET 4.14105 -0.022105 -1.09053
                        CHANNELS 3 Zrotation Xrotation Yrotation
                        JOINT LeftHandPinky2
                        {
                          OFFSET 2.75653 0 0
                          CHANNELS 3 Zrotation Xrotation Yrotation
                          JOINT LeftHandPinky3
                          {
                            OFFSET 1.74189 0 0
                            CHANNELS 3 Zrotation Xrotation Yrotation
                            End Site
                            {
                              OFFSET 1.645 0 0
                            }
                          }
                        }
                      }
                    }
                  }
                }
              }
            }
          }
        }
      }
    }
  }
}
MOTION
Frames: 2
Frame Time: 0.00833333
3.150000000000000000e+03 0.000000000000000000e+00 0.000000000000000000e+00 0.000000000000000000e+00 0.000000000000000000e+00 0.000000000000000000e+00 2.127939999999999543e+01 1.356909999999999883e+01 -6.578700000000000614e+01 -1.609290000000000020e+01 -5.470980000000000132e+01 -2.316369999999999862e+01 -3.336639999999999162e+00 2.514799999999999613e+01 -1.354090000000000060e+01 6.664950000000001040e+00 7.641879999999998674e+00 2.605010000000000403e+01 1.905559999999999832e+01 -4.884100000000000108e+01 6.341539999999998400e+00 6.063320000000000043e+00 3.142520000000000380e+01 -7.311139999999998196e+00 -1.642129999999999512e+01 -9.686959999999997351e+00 -1.830249999999999133e+01 -4.267260000000000275e+00 1.743230000000000146e+01 1.250520000000000032e+01 -7.067419999999998703e-01 4.256920000000000037e+00 3.074250000000000149e+00 -1.223999999999999977e+00 6.705180000000000362e+00 5.131470000000001086e+00 -3.073149999999998938e-01 -5.892760000000001330e-01 -4.605800000000002115e-01 -3.076540000000000941e-01 -5.951170000000001181e-01 -4.570380000000007215e-01 -6.378179999999998628e+00 -1.123649999999999949e+01 -8.080920000000002545e+00 -3.914209999999999745e+00 -1.466010000000000169e+01 2.745730000000000359e+01 7.071389999999999532e+01 -5.531760000000002009e+00 6.094109999999999872e+01 5.763829999999998677e+00 -5.406560000000000343e+01 -9.664089999999994518e+00 1.816659999999999897e+01 -2.169179999999999708e+01 -2.030600000000000094e+01 2.818400000000000105e+01 1.072940000000000005e+01 1.915919999999999845e+01 -9.478550000000000163e-15 1.192710000000000403e-15 -1.000000000000000000e+01 2.035419999999999457e-15 2.385420000000000017e-15 -1.000000000000000000e+01 3.180549999999999193e-15 9.541660000000000512e-15 6.361109999999999741e-15 1.998179999999999978e+01 8.718970000000000331e-01 2.396399999999999864e+00 2.400000000000000000e+01 -8.348959999999999886e-15 -3.180549999999999509e-14 2.000000000000000000e+01 -1.351739999999999991e-14 -9.541660000000000512e-15 3.180549999999999193e-15 9.541660000000000512e-15 6.361109999999999741e-15 2.000000000000000000e+01 -1.272219999999999993e-14 -3.180550000000002348e-15 2.400000000000000000e+01 -5.565970000000000787e-15 -1.590280000000000116e-14 2.000000000000000000e+01 -7.951389999999999226e-16 -2.226389999999999955e-14 3.180549999999999193e-15 9.541660000000000512e-15 6.361109999999999741e-15 1.997479999999999833e+01 -1.025649999999999951e+00 -2.819380000000000219e+00 2.400000000000000000e+01 3.180549999999999982e-15 -2.226389999999999639e-14 2.000000000000000000e+01 0.000000000000000000e+00 -1.272219999999999677e-14 3.180549999999999193e-15 9.541660000000000512e-15 6.361109999999999741e-15 1.978150000000000119e+01 -3.009479999999999933e+00 -8.305149999999999366e+00 2.400000000000000000e+01 -5.565969999999998421e-15 -6.361109999999996586e-15 2.000000000000000000e+01 1.033679999999999868e-14 -1.272219999999999993e-14 1.348619999999999841e+01 -1.433659999999999890e+01 -3.235630000000000450e+01 -4.775119999999999720e+01 1.355879999999999974e+01 -6.775910000000000366e+01 1.736200000000000188e+01 -6.401659999999998263e+01 2.517589999999999861e+01 -2.297619999999999152e+01 -1.665480000000000160e+01 1.276039999999999708e+01 -2.818400000000000105e+01 1.072940000000000005e+01 -1.915919999999999845e+01 -1.137129999999999922e-14 9.541660000000000512e-15 1.000000000000000000e+01 -3.229619999999999022e-15 0.000000000000000000e+00 1.000000000000000000e+01 -3.180549999999999982e-15 -1.590280000000000116e-14 -6.361110000000000530e-15 -1.998179999999999978e+01 8.718970000000000331e-01 -2.396399999999999864e+00 -2.400000000000000000e+01 -7.951390000000015004e-16 -3.180549999999999193e-15 -2.000000000000000000e+01 1.590279999999999880e-15 3.180549999999994460e-15 -3.180549999999999982e-15 -1.590280000000000116e-14 -6.361110000000000530e-15 -2.000000000000000000e+01 -9.541660000000000512e-15 1.272219999999999993e-14 -2.400000000000000000e+01 0.000000000000000000e+00 2.544440000000000617e-14 -2.000000000000000000e+01 3.975689999999998936e-15 1.272219999999999993e-14 -3.180549999999999982e-15 -1.590280000000000116e-14 -6.361110000000000530e-15 -1.997479999999999833e+01 -1.025649999999999951e+00 2.819380000000000219e+00 -2.400000000000000000e+01 -2.385420000000000805e-15 0.000000000000000000e+00 -2.000000000000000000e+01 -1.590279999999999880e-15 3.180549999999999193e-15 -3.180549999999999982e-15 -1.590280000000000116e-14 -6.361110000000000530e-15 -1.978150000000000119e+01 -3.009479999999999933e+00 8.305149999999999366e+00 -2.400000000000000000e+01 -6.758679999999999612e-15 2.544439999999999986e-14 -2.000000000000000000e+01 3.180549999999999982e-15 0.000000000000000000e+00
3.150000000000000000e+03 0.000000000000000000e+00 0.000000000000000000e+00 0.000000000000000000e+00 0.000000000000000000e+00 0.000000000000000000e+00 2.126020000000000465e+01 1.350249999999999950e+01 -6.589130000000000109e+01 -1.597729999999999961e+01 -5.468680000000000518e+01 -2.301250000000000284e+01 -3.366279999999999717e+00 2.512809999999999988e+01 -1.348389999999999844e+01 6.673110000000001207e+00 7.662139999999999951e+00 2.605140000000000455e+01 1.910590000000000188e+01 -4.874860000000001037e+01 6.427360000000000184e+00 6.011979999999999436e+00 3.144819999999999638e+01 -7.249259999999996040e+00 -1.639799999999999969e+01 -9.711449999999999250e+00 -1.830389999999999873e+01 -4.260990000000000499e+00 1.742239999999999966e+01 1.249179999999999779e+01 -7.067419999999999813e-01 4.256920000000000925e+00 3.074250000000000149e+00 -1.222780000000000200e+00 6.699919999999999654e+00 5.125100000000000655e+00 -3.127500000000000835e-01 -5.892760000000001330e-01 -4.605800000000002115e-01 -3.131040000000000489e-01 -5.951170000000001181e-01 -4.570380000000007215e-01 -6.467159999999998021e+00 -1.117900000000000027e+01 -8.029279999999999973e+00 -3.930109999999999992e+00 -1.447660000000000124e+01 2.741989999999999483e+01 7.093989999999999441e+01 -5.906120000000001369e+00 6.043970000000000908e+01 7.157020000000002824e+00 -5.405549999999999500e+01 -8.214430000000000121e+00 1.821720000000000184e+01 -2.159840000000000160e+01 -2.028800000000000026e+01 2.818400000000000105e+01 1.072940000000000005e+01 1.915919999999999845e+01 -3.369820000000001182e-15 -7.951389999999999226e-16 -1.000000000000000000e+01 -3.790440000000000116e-15 -3.180549999999999982e-15 -1.000000000000000000e+01 1.590280000000000116e-14 0.000000000000000000e+00 4.770830000000000256e-15 1.998179999999999978e+01 8.718970000000000331e-01 2.396399999999999864e+00 2.400000000000000000e+01 -1.073440000000000182e-14 -1.272220000000000308e-14 2.000000000000000000e+01 -7.156249999999997906e-15 -1.590280000000000116e-14 1.590280000000000116e-14 0.000000000000000000e+00 4.770830000000000256e-15 2.000000000000000000e+01 -3.180549999999999193e-15 2.226389999999999955e-14 2.400000000000000000e+01 1.590279999999999880e-15 -3.180550000000000771e-15 2.000000000000000000e+01 -8.746530000000000547e-15 -1.590280000000000116e-14 1.590280000000000116e-14 0.000000000000000000e+00 4.770830000000000256e-15 1.997479999999999833e+01 -1.025649999999999951e+00 -2.819380000000000219e+00 2.400000000000000000e+01 3.180549999999999193e-15 -3.180550000000000376e-15 2.000000000000000000e+01 -6.361109999999999741e-15 -9.541659999999998934e-15 1.590280000000000116e-14 0.000000000000000000e+00 4.770830000000000256e-15 1.978150000000000119e+01 -3.009479999999999933e+00 -8.305149999999999366e+00 2.400000000000000000e+01 -1.033680000000000025e-14 -1.908330000000000462e-14 2.000000000000000000e+01 -7.951389999999999226e-16 -6.361109999999998163e-15 1.348389999999999844e+01 -1.432270000000000110e+01 -3.241610000000000014e+01 -4.770360000000000156e+01 1.360450000000000337e+01 -6.778619999999999379e+01 1.751820000000000022e+01 -6.374469999999999459e+01 2.535560000000000258e+01 -2.291319999999999979e+01 -1.661320000000000263e+01 1.275760000000000005e+01 -2.818400000000000105e+01 1.072940000000000005e+01 -1.915919999999999845e+01 -3.790440000000000905e-15 3.180550000000000376e-15 1.000000000000000000e+01 -9.688859999999999433e-15 0.000000000000000000e+00 1.000000000000000000e+01 3.180549999999999982e-15 -6.361109999999999741e-15 -6.361110000000000530e-15 -1.998179999999999978e+01 8.718970000000000331e-01 -2.396399999999999864e+00 -2.400000000000000000e+01 -3.180549999999998404e-15 0.000000000000000000e+00 -2.000000000000000000e+01 -7.951389999999998240e-16 1.590280000000000116e-14 3.180549999999999982e-15 -6.361109999999999741e-15 -6.361110000000000530e-15 -2.000000000000000000e+01 -3.180549999999999193e-15 2.544440000000000301e-14 -2.400000000000000000e+01 -4.770830000000000256e-15 3.180550000000000376e-15 -2.000000000000000000e+01 0.000000000000000000e+00 9.541660000000000512e-15 3.180549999999999982e-15 -6.361109999999999741e-15 -6.361110000000000530e-15 -1.997479999999999833e+01 -1.025649999999999951e+00 2.819380000000000219e+00 -2.400000000000000000e+01 1.192710000000000087e-14 9.541660000000002090e-15 -2.000000000000000000e+01 -7.951390000000003171e-16 3.180550000000000771e-15 3.180549999999999982e-15 -6.361109999999999741e-15 -6.361110000000000530e-15 -1.978150000000000119e+01 -3.009479999999999933e+00 8.305149999999999366e+00 -2.400000000000000000e+01 -8.746529999999998969e-15 1.908329999999999831e-14 -2.000000000000000000e+01 4.770830000000000256e-15 1.908330000000000147e-14
